<svg width="70" height="69" viewBox="0 0 70 69" fill="none" xmlns="http://www.w3.org/2000/svg">
<path d="M35.0001 68.6514C53.6501 68.6514 69.1515 53.1828 69.1515 34.4999C69.1515 15.8499 53.6829 0.348511 35.0329 0.348511C33.2586 0.348511 32.3886 1.41994 32.3886 3.15994V16.1514C32.3886 17.5914 33.3601 18.7628 34.8315 18.7628C36.3058 18.7628 37.3101 17.5914 37.3101 16.1514V6.13994C52.0429 7.31137 63.4258 19.4999 63.4258 34.4999C63.4412 38.2388 62.7168 41.9438 61.2942 45.4015C59.8716 48.8591 57.7789 52.0012 55.1367 54.6465C52.4945 57.2919 49.3549 59.3884 45.899 60.8152C42.443 62.242 38.7389 62.9709 35.0001 62.9599C19.1958 62.9599 6.5072 50.3028 6.54006 34.4999C6.57292 27.4685 9.08435 21.0742 13.2701 16.1514C14.3072 14.8457 14.3743 13.2728 13.2701 12.0999C12.1643 10.8957 10.2901 10.9957 9.08435 12.5028C3.96149 18.4614 0.848633 26.1628 0.848633 34.4999C0.848633 53.1828 16.3172 68.6514 35.0001 68.6514ZM40.3572 39.6557C43.0015 36.9099 42.4672 33.1599 39.2858 30.9514L21.5715 18.5957C19.8986 17.4242 18.1572 19.1657 19.3286 20.8385L31.6843 38.5514C33.8943 41.7328 37.6443 42.3014 40.3572 39.6557Z" fill="white"/>
</svg>
