<svg width="75" height="64" viewBox="0 0 75 64" fill="none" xmlns="http://www.w3.org/2000/svg">
<path d="M69.2308 0.5H5.76923C4.23914 0.5 2.77171 1.10783 1.68977 2.18977C0.607828 3.27171 0 4.73914 0 6.26923V58.1923C0 59.7224 0.607828 61.1898 1.68977 62.2718C2.77171 63.3537 4.23914 63.9615 5.76923 63.9615H10.5974C11.1433 63.9617 11.6781 63.807 12.1396 63.5153C12.601 63.2236 12.9703 62.8069 13.2043 62.3137C14.607 59.3522 16.8217 56.8498 19.5907 55.0974C22.3597 53.345 25.5692 52.4148 28.8462 52.4148C32.1231 52.4148 35.3326 53.345 38.1016 55.0974C40.8706 56.8498 43.0853 59.3522 44.488 62.3137C44.7221 62.8069 45.0913 63.2236 45.5528 63.5153C46.0142 63.807 46.549 63.9617 47.095 63.9615H69.2308C70.7609 63.9615 72.2283 63.3537 73.3102 62.2718C74.3922 61.1898 75 59.7224 75 58.1923V6.26923C75 4.73914 74.3922 3.27171 73.3102 2.18977C72.2283 1.10783 70.7609 0.5 69.2308 0.5ZM20.1923 38C20.1923 36.2884 20.6998 34.6153 21.6507 33.1922C22.6016 31.7691 23.9532 30.6599 25.5345 30.0049C27.1158 29.3499 28.8558 29.1785 30.5344 29.5124C32.2131 29.8463 33.7551 30.6705 34.9653 31.8808C36.1756 33.0911 36.9998 34.633 37.3337 36.3117C37.6676 37.9904 37.4963 39.7304 36.8413 41.3117C36.1863 42.893 35.0771 44.2445 33.654 45.1954C32.2309 46.1463 30.5577 46.6538 28.8462 46.6538C26.551 46.6538 24.3499 45.7421 22.727 44.1192C21.104 42.4963 20.1923 40.2951 20.1923 38ZM69.2308 58.1923H48.8329C46.424 54.0508 42.7929 50.7559 38.4375 48.7596C40.6211 46.8153 42.1622 44.2533 42.8566 41.4131C43.551 38.573 43.3658 35.5889 42.3255 32.8564C41.2853 30.1239 39.4392 27.7721 37.0319 26.1127C34.6247 24.4534 31.7699 23.5648 28.8462 23.5648C25.9224 23.5648 23.0676 24.4534 20.6604 26.1127C18.2531 27.7721 16.407 30.1239 15.3668 32.8564C14.3266 35.5889 14.1414 38.573 14.8357 41.4131C15.5301 44.2533 17.0712 46.8153 19.2548 48.7596C14.8994 50.7559 11.2683 54.0508 8.85938 58.1923H5.76923V6.26923H69.2308V58.1923ZM11.5385 20.6923V14.9231C11.5385 14.158 11.8424 13.4243 12.3833 12.8833C12.9243 12.3424 13.658 12.0385 14.4231 12.0385H60.5769C61.342 12.0385 62.0757 12.3424 62.6167 12.8833C63.1576 13.4243 63.4615 14.158 63.4615 14.9231V49.5385C63.4615 50.3035 63.1576 51.0372 62.6167 51.5782C62.0757 52.1192 61.342 52.4231 60.5769 52.4231H54.8077C54.0426 52.4231 53.3089 52.1192 52.768 51.5782C52.227 51.0372 51.9231 50.3035 51.9231 49.5385C51.9231 48.7734 52.227 48.0397 52.768 47.4987C53.3089 46.9578 54.0426 46.6538 54.8077 46.6538H57.6923V17.8077H17.3077V20.6923C17.3077 21.4574 17.0038 22.1911 16.4628 22.732C15.9218 23.273 15.1881 23.5769 14.4231 23.5769C13.658 23.5769 12.9243 23.273 12.3833 22.732C11.8424 22.1911 11.5385 21.4574 11.5385 20.6923Z" fill="white"/>
</svg>
