<svg viewBox="0 0 24 24" xmlns="http://www.w3.org/2000/svg"><path d="m0 0h24v24h-24z" fill="#fff" opacity="0"/><g fill="#231f20"><path d="m14.76 11.19a1 1 0 0 0 -1 1.09h2.06a1 1 0 0 0 -1.06-1.09z"/><path d="m9.49 12.3h-1.23v1.94h1c1 0 1.44-.33 1.44-1s-.46-.94-1.21-.94z"/><path d="m10.36 10.52c0-.53-.35-.85-.95-.85h-1.15v1.74h.85c.89 0 1.25-.32 1.25-.89z"/><path d="m12 2a10 10 0 1 0 10 10 10 10 0 0 0 -10-10zm-2.3 13.2h-2.7v-6.5h2.7c1.17 0 1.94.61 1.94 1.6a1.4 1.4 0 0 1 -1.12 1.43 1.52 1.52 0 0 1 1.48 1.64c0 1.16-1 1.83-2.3 1.83zm3.55-6h3v.5h-3zm3.75 3.85h-3.3v.14a1.07 1.07 0 0 0 1.09 1.19.9.9 0 0 0 1-.63h1.21a2 2 0 0 1 -2.17 1.55 2.15 2.15 0 0 1 -2.36-2.3v-.44a2.11 2.11 0 0 1 2.28-2.25 2.12 2.12 0 0 1 2.25 2.27z"/></g></svg>