<svg width="62" height="72" viewBox="0 0 62 72" fill="none" xmlns="http://www.w3.org/2000/svg">
<path d="M31 70.5L15.56 62.2675C11.1583 59.9258 7.47743 56.4296 4.91232 52.1543C2.3472 47.879 0.994717 42.9858 1.00002 38V5.5C1.00134 4.17432 1.52855 2.90332 2.46594 1.96593C3.40334 1.02853 4.67434 0.501324 6.00002 0.5H56C57.3257 0.501324 58.5967 1.02853 59.5341 1.96593C60.4715 2.90332 60.9987 4.17432 61 5.5V38C61.0053 42.9858 59.6528 47.879 57.0877 52.1543C54.5226 56.4296 50.8417 59.9258 46.44 62.2675L31 70.5ZM6.00002 5.5V38C5.99587 42.0795 7.10277 46.0831 9.20192 49.5811C11.3011 53.0791 14.3132 55.9394 17.915 57.855L31 64.8325L44.085 57.8575C47.6872 55.9417 50.6996 53.081 52.7987 49.5826C54.8979 46.0841 56.0046 42.0799 56 38V5.5H6.00002Z" fill="white" stroke="white"/>
</svg>
