<svg width="61" height="71" viewBox="0 0 61 71" fill="none" xmlns="http://www.w3.org/2000/svg">
<path d="M46.4699 49.6967C46.7939 50.0226 47.3241 50.0207 47.6499 49.6967C48.3464 49.0003 49.1732 48.4478 50.0831 48.0709C50.9931 47.694 51.9683 47.5 52.9532 47.5C53.9382 47.5 54.9134 47.694 55.8234 48.0709C56.7333 48.4478 57.5601 49.0003 58.2566 49.6967C58.953 50.3932 59.5055 51.2199 59.8824 52.1299C60.2593 53.0398 60.4533 54.0151 60.4533 55C60.4533 55.985 60.2593 56.9602 59.8824 57.8702C59.5055 58.7801 58.953 59.6069 58.2566 60.3034L48.471 70.086C47.6898 70.867 46.4235 70.8668 45.6426 70.0856L35.8633 60.3034C35.1668 59.6069 34.6144 58.7801 34.2374 57.8702C33.8605 56.9602 33.6665 55.985 33.6665 55C33.6665 54.0151 33.8605 53.0398 34.2374 52.1299C34.6144 51.2199 35.1668 50.3932 35.8633 49.6967C36.5597 49.0003 37.3865 48.4478 38.2964 48.0709C39.2064 47.694 40.1817 47.5 41.1666 47.5C42.1515 47.5 43.1268 47.694 44.0367 48.0709C44.9467 48.4478 45.7735 49.0003 46.4699 49.6967ZM26.1666 44.18C26.6246 44.1727 26.9999 44.542 26.9999 45.0001V48.8334C26.9999 49.9379 26.1022 50.823 25.0032 50.9332C20.4322 51.3917 16.1349 53.4141 12.8578 56.6912C9.58067 59.9683 7.55828 64.2656 7.09978 68.8366C6.98954 69.9357 6.10449 70.8334 4.99992 70.8334H2.33327C1.22869 70.8334 0.325451 69.9366 0.408195 68.8351C0.873929 62.6354 3.49535 56.7688 7.85148 52.2744C12.6733 47.2995 19.2419 44.3965 26.1666 44.18ZM26.9999 0.833374C38.0499 0.833374 46.9999 9.78337 46.9999 20.8334C47.0018 26.0085 44.9969 30.9827 41.4069 34.7101C37.8169 38.4375 32.9214 40.6276 27.7499 40.82L26.9999 40.8334C15.9499 40.8334 6.99992 31.8834 6.99992 20.8334C6.99807 15.6583 9.00293 10.6841 12.5929 6.95667C16.1829 3.22928 21.0784 1.03911 26.2499 0.846707L26.9999 0.833374ZM26.9999 7.50004C19.6333 7.50004 13.6666 13.4667 13.6666 20.8334C13.6666 28.2 19.6333 34.1667 26.9999 34.1667C34.3666 34.1667 40.3333 28.2 40.3333 20.8334C40.3333 13.4667 34.3666 7.50004 26.9999 7.50004Z" fill="white"/>
</svg>
