<svg width="76" height="64" viewBox="0 0 76 64" fill="none" xmlns="http://www.w3.org/2000/svg">
<path d="M9.34347 63.3866C6.03967 63.3866 3.139 61.726 1.58437 58.9453C0.140661 56.3642 0.206058 53.3137 1.75904 50.7856L30.0943 4.67382C31.6887 2.07945 34.5239 0.531433 37.6787 0.531433C40.8344 0.531433 43.6696 2.07945 45.2632 4.67382L73.5976 50.7856C75.1514 53.3137 75.2168 56.3642 73.7739 58.9453C72.2185 61.726 69.317 63.3866 66.014 63.3866" fill="white"/>
<mask id="mask0_12_3595" style="mask-type:luminance" maskUnits="userSpaceOnUse" x="0" y="0" width="76" height="64">
<path d="M0 0H75.346V64H0V0Z" fill="white"/>
</mask>
<g mask="url(#mask0_12_3595)">
<path d="M37.6788 0C34.5612 0 31.4429 1.46523 29.6415 4.3957L15.3725 27.6167L1.30627 50.5075C-2.34025 56.4429 2.13988 63.9172 9.34352 63.9172H66.014C73.2185 63.9172 77.6986 56.4429 74.0513 50.5075L59.9851 27.6167L45.716 4.3957C43.9155 1.46523 40.7972 0 37.6788 0ZM37.6788 1.06209C40.6481 1.06209 43.3145 2.51656 44.8104 4.95199L59.0803 28.173L73.1465 51.0637C74.5985 53.4255 74.6597 56.2748 73.3096 58.6863C71.8493 61.2964 69.1225 62.8551 66.014 62.8551H9.34352C6.23508 62.8551 3.50826 61.2964 2.04799 58.6863C0.699482 56.2748 0.76074 53.4255 2.2119 51.0637L16.2781 28.173L30.5472 4.95199C32.0438 2.51656 34.7094 1.06209 37.6788 1.06209Z" fill="#1F779F"/>
</g>
<path d="M49.2111 22.3329C49.2111 15.9637 44.048 10.8006 37.6788 10.8006C31.3096 10.8006 26.1465 15.9637 26.1465 22.3329C26.1465 28.7021 31.3096 33.8652 37.6788 33.8652C44.048 33.8652 49.2111 28.7021 49.2111 22.3329Z" fill="#F48525"/>
<path d="M40.9049 30.4445L45.6185 30.5133C45.6226 30.5133 45.6259 30.5099 45.6259 30.5058L45.6938 25.7931C45.6938 25.7906 45.6947 25.7889 45.6963 25.7873L49.0771 22.5033C49.0804 22.5008 49.0804 22.4959 49.0779 22.4934L45.7932 19.1118C45.7915 19.1109 45.7915 19.1085 45.7915 19.1068L45.8594 14.3932C45.8594 14.3891 45.8561 14.3866 45.8528 14.3858L41.1392 14.3179C41.1375 14.3171 41.1351 14.3171 41.1342 14.3154L37.8495 10.9346C37.847 10.9313 37.842 10.9313 37.8395 10.9346L34.4579 14.2186C34.4571 14.2194 34.4554 14.2202 34.4529 14.2202L29.7402 14.1523C29.736 14.1523 29.7327 14.1556 29.7327 14.1598L29.664 18.8725C29.664 18.8742 29.6632 18.8758 29.6615 18.8775L26.2807 22.1623C26.2783 22.1647 26.2774 22.1697 26.2807 22.1722L29.5647 25.5538C29.5663 25.5546 29.5672 25.5571 29.5672 25.5588L29.4985 30.2724C29.4985 30.2757 29.5018 30.279 29.5059 30.279L34.2195 30.3477C34.2211 30.3477 34.2228 30.3485 34.2245 30.3502L37.5084 33.731C37.5117 33.7335 37.5158 33.7335 37.5183 33.731L40.9 30.447C40.9016 30.4454 40.9033 30.4445 40.9049 30.4445Z" fill="#F8F305"/>
<path d="M29.6015 30.1788L34.2654 30.2458L34.3002 30.2822L37.5154 33.5918L40.8581 30.3443L40.9062 30.3427L45.5245 30.4097L45.5924 25.7475L45.6264 25.7127L48.9376 22.4958L45.6909 19.1531L45.6884 19.1068L45.7555 14.4867L41.0924 14.4188L41.0576 14.3832L37.8424 11.0736L34.4989 14.3203L34.4525 14.3228L29.8325 14.2558L29.7654 18.918L29.7307 18.9528L26.4194 22.1688L29.6669 25.5124L29.6686 25.5587L29.6015 30.1788ZM37.5105 33.8352L37.4674 33.8336L37.4335 33.8005L34.1777 30.4495L29.4608 30.3808L29.3962 30.3154V30.2665L29.4641 25.596L26.1777 22.2135L26.176 22.1664L26.1769 22.1233L26.21 22.0885L29.5618 18.8319L29.6305 14.1159L29.6934 14.0513L29.7406 14.0505L34.4153 14.1175L37.7985 10.8311L37.8466 10.8303L37.8888 10.8311L37.9235 10.8642L41.1793 14.216L45.897 14.2847L45.9616 14.3501L45.9608 14.399L45.8937 19.0687L49.1793 22.4519L49.181 22.4983V22.5414L49.1479 22.5761L45.7952 25.8336L45.7265 30.5488L45.6644 30.6134L45.6164 30.615L40.9426 30.5471L37.5585 33.8344" fill="#FF6700"/>
<path d="M44.0596 28.2905L48.351 26.3394C48.3552 26.3386 48.356 26.3336 48.3552 26.3303L46.404 22.0389C46.4032 22.0372 46.4032 22.0356 46.404 22.0339L48.0588 17.62C48.0605 17.6159 48.0588 17.6117 48.0547 17.6109L43.6408 15.9553C43.6391 15.9544 43.6374 15.9536 43.6366 15.952L41.6863 11.6606C41.6846 11.6573 41.6805 11.6548 41.6763 11.6573L37.3858 13.6076C37.3841 13.6084 37.3816 13.6084 37.38 13.6076L32.9661 11.9528C32.9628 11.9511 32.9586 11.9528 32.957 11.9569L31.3022 16.3708C31.3013 16.3725 31.2997 16.3741 31.298 16.375L27.0066 18.3253C27.0033 18.327 27.0017 18.3311 27.0033 18.3352L28.9545 22.6258C28.9553 22.6283 28.9553 22.6299 28.9545 22.6316L27.2989 27.0455C27.298 27.0488 27.2997 27.053 27.3038 27.0546L31.7169 28.7094C31.7194 28.7102 31.7202 28.7119 31.721 28.7136L33.6714 33.0049C33.673 33.0083 33.678 33.0099 33.6813 33.0083L37.9727 31.0579C37.9744 31.0571 37.976 31.0571 37.9785 31.0579L42.3916 32.7127C42.3957 32.7136 42.3999 32.7119 42.4015 32.7086L44.0563 28.2947C44.0571 28.293 44.058 28.2914 44.0596 28.2905Z" fill="#F8F305"/>
<path d="M27.4281 26.9926L31.7915 28.6283L31.813 28.6689L33.7253 32.8767L37.9678 30.947L38.0125 30.9611L42.3387 32.5836L43.9761 28.2186L44.0175 28.1979L48.2228 26.2856L46.294 22.0439L46.3072 22L47.9297 17.673L43.5672 16.0364L43.5448 15.9959L41.6325 11.7889L37.39 13.7177L37.3453 13.7037L33.0191 12.082L31.3817 16.4479L31.337 16.4686L27.1359 18.3792L29.0638 22.6209L29.0506 22.6648L27.4281 26.9926ZM33.6309 33.1432L33.5787 33.0472L31.6441 28.7914L27.2277 27.135L27.1888 27.0538L27.2037 27.0083L28.8453 22.6325L26.8933 18.3386L26.9231 18.2533L26.9653 18.2318L31.2203 16.298L32.8974 11.8254L33.0018 11.8568L37.3792 13.4984L41.7277 11.5215L41.7799 11.6184L43.7137 15.8742L48.1301 17.5298L48.1698 17.6118L48.1541 17.6573L46.5133 22.0331L48.4653 26.327L48.4355 26.4123L48.3925 26.433L44.1383 28.3667L42.4612 32.8394L42.3561 32.808L37.9794 31.1672" fill="#FF6700"/>
<path d="M36.0131 25.7119C35.9949 25.6805 35.9841 25.6631 35.9841 25.6631C35.9841 25.6631 35.9941 25.6805 36.0131 25.7119Z" fill="white"/>
<path d="M35.9841 25.6631C35.9841 25.6631 35.9941 25.6805 36.0131 25.7119C35.9949 25.6805 35.9841 25.6631 35.9841 25.6631Z" fill="white"/>
<path d="M36.1285 25.6456C36.285 25.9064 37.7262 28.211 39.8586 28.3658C41.8487 28.5098 44.4472 29.8252 45.3073 30.288C44.6078 28.3691 41.5408 26.2234 41.5076 26.2019L41.3595 26.0984L41.5018 25.9875C42.4621 25.24 43.8562 25.0016 44.2833 24.9444C44.1062 22.2516 42.4729 21.1539 42.083 20.9304C41.7684 21.254 40.501 22.4858 39.3843 22.4858C39.2593 22.4858 39.1384 22.4701 39.025 22.4403C38.4182 22.2747 38.0341 21.4999 37.8826 20.139C37.8015 19.4064 37.8123 18.653 37.9149 17.9006C38.3065 15.0314 38.011 13.711 37.775 13.1539C37.6525 15.5628 35.5755 17.8956 34.7312 18.6307C34.4729 18.8559 34.3371 19.2035 34.3487 19.6075C34.3537 19.7648 34.3785 19.9295 34.4232 20.0959C34.4638 20.2466 34.5333 20.3857 34.607 20.5322C34.6757 20.6688 34.7477 20.8103 34.7957 20.9676C34.8876 21.264 34.934 21.6009 34.934 21.9676C34.934 22.2333 34.8504 22.3741 34.684 22.3848C34.6773 22.3848 34.6707 22.3848 34.6641 22.3848C34.4663 22.3848 34.352 22.2035 34.2767 22.0835L34.2527 22.0454C34.155 21.8956 34.0267 21.7648 33.9033 21.6431C33.6889 21.432 33.4439 21.235 33.1533 21.0429C32.8487 20.841 32.4903 20.6208 32.0962 20.5628C32.0159 20.5504 31.9348 20.5446 31.8537 20.5446C31.5689 20.5446 31.2792 20.6174 31.0143 20.7557C30.5656 20.9883 30.1451 21.3782 29.727 21.9453C29.6351 22.0694 29.5474 22.1994 29.4646 22.3302C29.7303 22.2193 29.9894 22.1638 30.2386 22.1638C31.3528 22.1638 32.0399 23.2408 32.4207 24.1439C32.7966 25.0363 33.3553 25.7689 34.0366 26.264C34.6633 26.7193 35.1782 26.9403 35.6128 26.9403C35.833 26.9403 36.0134 26.8857 36.1757 26.8269C36.203 26.8169 36.2179 26.802 36.2278 26.7739C36.2841 26.6199 36.1517 26.2201 35.8984 25.778C35.8793 25.7458 35.8686 25.7275 35.8686 25.7275L36.0979 25.5934C36.0979 25.5934 36.1095 25.6125 36.1285 25.6456Z" fill="white"/>
<path d="M36.7969 26.5099C36.7687 26.4768 36.7406 26.4437 36.7149 26.4114C36.7 26.3941 36.6851 26.375 36.6711 26.3576C36.6413 26.3204 36.6123 26.284 36.585 26.2492C36.5676 26.2268 36.5519 26.2053 36.5353 26.183C36.5187 26.1614 36.5022 26.1407 36.4873 26.12C36.4707 26.0977 36.455 26.0762 36.4393 26.0546C36.431 26.0431 36.4235 26.0331 36.4161 26.0215C36.3813 25.9735 36.3499 25.928 36.3217 25.8866C36.3209 25.8858 36.3201 25.8841 36.3192 25.8833C36.253 25.7864 36.205 25.7103 36.1752 25.6631C36.1686 25.6507 36.1603 25.6383 36.1562 25.6308C36.1545 25.6283 36.1545 25.6275 36.1528 25.6258C36.1355 25.5952 36.1247 25.577 36.1247 25.577C36.1156 25.5621 36.104 25.5497 36.0916 25.5389C36.061 25.5124 36.0229 25.4975 35.984 25.4975C35.9616 25.4975 35.9384 25.5042 35.9169 25.5141C35.912 25.5166 35.9062 25.5182 35.9004 25.5207C35.8424 25.5555 35.8126 25.6192 35.8209 25.683C35.8209 25.6846 35.8217 25.6863 35.8225 25.6888C35.8259 25.707 35.83 25.726 35.8399 25.7434C35.8399 25.7434 35.8507 25.7624 35.8706 25.7947C35.9567 25.9445 36.0278 26.0902 36.0833 26.2235C36.1272 26.327 36.1603 26.4239 36.1818 26.5066C36.2108 26.62 36.2174 26.7086 36.1975 26.7633C36.1909 26.7823 36.1826 26.7906 36.1644 26.7964C36.0047 26.8551 35.8275 26.9081 35.6123 26.9081C35.5941 26.9081 35.5742 26.9056 35.556 26.9048C35.5345 26.9032 35.5138 26.9023 35.4923 26.9007H35.4931C35.0908 26.8643 34.6189 26.6482 34.0543 26.2384C33.3788 25.7467 32.8234 25.0182 32.4492 24.1316C32.0651 23.2194 31.3697 22.1325 30.2381 22.1316C30.0138 22.1316 29.7812 22.1763 29.5436 22.2649C29.6106 22.1623 29.6802 22.0621 29.7522 21.9636C30.1669 21.4007 30.5841 21.0149 31.0287 20.784C31.2886 20.6482 31.5734 20.577 31.8532 20.577C31.9326 20.577 32.0129 20.5828 32.0908 20.5944C32.479 20.6507 32.8333 20.8692 33.1355 21.0695C33.4235 21.2608 33.6677 21.4561 33.8805 21.6664C34.0022 21.7864 34.1297 21.9164 34.2249 22.0629L34.2489 22.1002C34.3283 22.2268 34.4475 22.4172 34.6636 22.4172C34.6711 22.4172 34.6785 22.4172 34.686 22.4164C34.8714 22.4048 34.9658 22.2542 34.9658 21.9677C34.9658 21.5977 34.9186 21.2583 34.8259 20.9578C34.7762 20.7989 34.7042 20.6556 34.6346 20.5174C34.5618 20.3725 34.4931 20.2359 34.4533 20.0878C34.4095 19.9239 34.3846 19.7624 34.3797 19.6068C34.3689 19.2119 34.5005 18.8742 34.7514 18.6556C35.5817 17.9313 37.6023 15.6664 37.7969 13.2972C38.0179 13.9123 38.2464 15.2326 37.883 17.8965C37.7795 18.6523 37.7687 19.4073 37.8507 20.1424C38.003 21.5182 38.3954 22.3013 39.0163 22.4702C39.1321 22.5017 39.2555 22.5182 39.3838 22.5182C40.4939 22.5182 41.7472 21.3187 42.0891 20.9686C42.5121 21.2103 44.0651 22.2724 44.2489 24.9172C43.7878 24.9818 42.4269 25.2268 41.4815 25.9628C41.4409 25.9942 41.4169 26.0447 41.4186 26.0969C41.4194 26.149 41.4459 26.1979 41.4889 26.2277C41.5212 26.25 44.4989 28.332 45.2464 30.2194C44.3176 29.7252 41.8019 28.4752 39.8598 28.3344C38.508 28.2359 37.436 27.2649 36.7969 26.5099ZM41.5833 26.0927C42.6876 25.2335 44.4219 25.0613 44.4219 25.0613C44.2646 21.7964 42.056 20.7649 42.056 20.7649C42.056 20.7649 40.5982 22.3535 39.3838 22.3535C39.2729 22.3535 39.1644 22.3402 39.0593 22.3113C38.3896 22.1292 38.1197 21.0737 38.0138 20.1242C37.9326 19.3916 37.9459 18.649 38.0461 17.9189C38.652 13.476 37.6396 12.6879 37.6396 12.6879C37.7977 15.2657 35.4318 17.8436 34.6437 18.5315C34.3391 18.7955 34.2033 19.1954 34.2149 19.6118C34.2207 19.7873 34.2489 19.9619 34.2944 20.1308C34.378 20.4429 34.5734 20.6987 34.6686 21.0066C34.7638 21.3154 34.801 21.6432 34.801 21.9677C34.801 22.0662 34.7961 22.245 34.6752 22.2525C34.6711 22.2525 34.6677 22.2525 34.6636 22.2525C34.5229 22.2525 34.4343 22.0828 34.3631 21.9735C34.2605 21.8154 34.1272 21.678 33.9964 21.5489C33.7596 21.3154 33.498 21.1126 33.2257 20.9321C32.8797 20.702 32.5229 20.4909 32.1148 20.4313C32.0278 20.4181 31.9401 20.4123 31.8532 20.4123C31.5419 20.4123 31.234 20.4917 30.9525 20.6383C30.4227 20.9131 29.984 21.3717 29.6197 21.8659C29.4881 22.0455 29.3648 22.2318 29.2514 22.4247C29.2224 22.4735 29.1702 22.6267 29.123 22.6556C29.5353 22.4023 29.9062 22.2964 30.2381 22.2964C31.3002 22.2964 31.9567 23.3849 32.2977 24.1962C32.6661 25.0695 33.224 25.8386 33.9583 26.3717C34.2836 26.6076 34.6322 26.8278 35.0138 26.9619C35.1429 27.0075 35.277 27.0422 35.4136 27.0604C35.5891 27.0828 35.7696 27.0687 35.9459 27.0596C36.1048 27.0522 36.2638 27.0406 36.4227 27.0265C36.5535 27.0141 36.705 26.981 36.8101 26.8974C36.8308 26.8808 36.849 26.8585 36.8557 26.8328C37.1098 27.1051 37.3764 27.3634 37.6702 27.5927C37.9881 27.8394 38.3325 28.0538 38.7017 28.2128C39.0659 28.3684 39.4533 28.4694 39.8482 28.4984C42.2141 28.6705 45.5262 30.5604 45.5262 30.5604C45.0527 28.4984 41.5833 26.0927 41.5833 26.0927Z" fill="#FF6700"/>
<path d="M31.7093 21.3668C31.7093 21.2244 31.5943 21.1093 31.4511 21.1093C31.3087 21.1093 31.1936 21.2244 31.1936 21.3668C31.1936 21.5091 31.3087 21.6242 31.4511 21.6242C31.5943 21.6242 31.7093 21.5091 31.7093 21.3668Z" fill="#FF6700"/>
<path d="M37.6521 39.7997H37.6447C37.4625 39.7997 37.3152 39.947 37.3152 40.1292V53.4222C37.3152 53.6043 37.4625 53.7517 37.6447 53.7517H37.6521C37.8334 53.7517 37.9816 53.6043 37.9816 53.4222V40.1292C37.9816 39.947 37.8334 39.7997 37.6521 39.7997Z" fill="#C5AE4B"/>
<path d="M37.6482 52.7939L40.1474 52.0488V49.9619L37.6482 50.7069V52.7939Z" fill="#1F5E00"/>
<path d="M37.648 52.7939L35.1497 52.0488V49.9619L37.648 50.7069V52.7939Z" fill="#1F5E00"/>
<path d="M37.6482 49.6292L40.1474 48.8833V46.7964L37.6482 47.5422V49.6292Z" fill="#1F5E00"/>
<path d="M37.648 49.6292L35.1497 48.8833V46.7964L37.648 47.5422V49.6292Z" fill="#1F5E00"/>
<path d="M37.6482 46.4637L40.1474 45.7186V43.6317L37.6482 44.3767V46.4637Z" fill="#1F5E00"/>
<path d="M37.648 46.4637L35.1497 45.7186V43.6317L37.648 44.3767V46.4637Z" fill="#1F5E00"/>
<path d="M37.6482 43.2979L40.1474 42.5529V40.4659L37.6482 41.211V43.2979Z" fill="#1F5E00"/>
<path d="M37.648 43.2979L35.1497 42.5529V40.4659L37.648 41.211V43.2979Z" fill="#1F5E00"/>
<path d="M52.1975 32.0771C52.1081 31.9156 51.9053 31.8577 51.7447 31.9471L37.5311 39.8337C37.3697 39.9231 37.3117 40.1259 37.4011 40.2865C37.4905 40.4479 37.6933 40.5059 37.8539 40.4165L52.0675 32.5299C52.2289 32.4405 52.2869 32.2377 52.1975 32.0771Z" fill="#C5AE4B"/>
<path d="M42 37.7342L43.8642 39.5579L45.6887 38.5455L43.8245 36.7218L42 37.7342Z" fill="#1F5E00"/>
<path d="M41.9999 37.7342L41.4395 35.1878L43.264 34.1754L43.8244 36.7218L41.9999 37.7342Z" fill="#1F5E00"/>
<path d="M44.7676 36.1986L46.6326 38.0222L48.4571 37.0098L46.5929 35.1862L44.7676 36.1986Z" fill="#1F5E00"/>
<path d="M44.7675 36.1987L44.207 33.6524L46.0324 32.64L46.5928 35.1863L44.7675 36.1987Z" fill="#1F5E00"/>
<path d="M47.5354 34.6632L49.3996 36.4868L51.2241 35.4744L49.3599 33.6508L47.5354 34.6632Z" fill="#1F5E00"/>
<path d="M47.5353 34.6631L46.9749 32.1167L48.7994 31.1043L49.3598 33.6507L47.5353 34.6631Z" fill="#1F5E00"/>
<path d="M50.304 33.1275L52.1674 34.9511L53.9927 33.9387L52.1285 32.1151L50.304 33.1275Z" fill="#1F5E00"/>
<path d="M50.3037 33.1274L49.7424 30.5811L51.5678 29.5687L52.1282 32.115L50.3037 33.1274Z" fill="#1F5E00"/>
<path d="M23.1607 32.0771C23.2501 31.9156 23.4529 31.8577 23.6144 31.9471L37.8279 39.8337C37.9885 39.9231 38.0465 40.1259 37.9571 40.2865C37.8677 40.4479 37.6649 40.5059 37.5051 40.4165L23.2907 32.5299C23.1301 32.4405 23.0713 32.2377 23.1607 32.0771Z" fill="#C5AE4B"/>
<path d="M33.3576 37.7342L31.4942 39.5579L29.6697 38.5455L31.5331 36.7218L33.3576 37.7342Z" fill="#1F5E00"/>
<path d="M33.3577 37.7342L33.919 35.1878L32.0936 34.1754L31.5332 36.7218L33.3577 37.7342Z" fill="#1F5E00"/>
<path d="M30.5904 36.1986L28.7261 38.0222L26.9016 37.0098L28.7658 35.1862L30.5904 36.1986Z" fill="#1F5E00"/>
<path d="M30.5904 36.1987L31.1508 33.6524L29.3263 32.64L28.7659 35.1863L30.5904 36.1987Z" fill="#1F5E00"/>
<path d="M27.8218 34.6632L25.9584 36.4868L24.1331 35.4744L25.9973 33.6508L27.8218 34.6632Z" fill="#1F5E00"/>
<path d="M27.8218 34.6631L28.3831 32.1167L26.5577 31.1043L25.9973 33.6507L27.8218 34.6631Z" fill="#1F5E00"/>
<path d="M25.0547 33.1275L23.1905 34.9511L21.366 33.9387L23.2302 32.1151L25.0547 33.1275Z" fill="#1F5E00"/>
<path d="M25.0547 33.1274L25.6152 30.5811L23.7907 29.5687L23.2302 32.115L25.0547 33.1274Z" fill="#1F5E00"/>
<path d="M9.34749 54.6895L8.78871 54.1299L8.23242 54.6829L8.78871 55.2483L9.34749 54.6895Z" fill="#001B49"/>
<path d="M10.4735 54.6829L9.90726 54.1299L9.34766 54.6895L9.90726 55.2483L10.4735 54.6829Z" fill="#001B49"/>
<path d="M18.9016 61.2021L19.467 61.7609L20.0283 61.1988L19.467 60.6367L18.9016 61.2021Z" fill="#001B49"/>
<path d="M20.0281 61.1988L20.5885 61.7617L21.1415 61.2021L20.5885 60.6367L20.0281 61.1988Z" fill="#001B49"/>
<path d="M23.0156 54.706L22.3939 54.0743L21.7698 54.706L22.3939 55.3144L23.0156 54.706Z" fill="#001B49"/>
<path d="M22.8815 57.3195C22.855 57.2897 22.836 57.2541 22.8244 57.2152C22.812 57.1762 22.8062 57.1332 22.8062 57.0877C22.8062 57.0264 22.817 56.966 22.8393 56.9064C22.8608 56.846 22.8865 56.8029 22.918 56.7764C22.9502 56.7375 22.9983 56.7176 23.0612 56.7176C23.1158 56.7176 23.1663 56.7383 23.2118 56.7806C23.2656 56.8302 23.3021 56.8998 23.3194 56.9892L23.5322 58.1208L22.8815 57.3195ZM9.1456 57.2839L9.96597 57.0678L10.3294 56.3683L10.336 58.0521L9.1456 57.2839ZM23.8153 56.7143C23.788 56.5099 23.7524 56.3319 23.7093 56.1812C23.6506 55.9726 23.5802 55.8095 23.4999 55.6945C23.3989 55.5479 23.283 55.4751 23.1497 55.4751C23.1084 55.4751 23.0628 55.4842 23.0156 55.5016C22.7996 55.5802 22.6067 55.7458 22.4362 55.9983C22.2797 56.2317 22.1713 56.4933 22.1133 56.783C22.1067 56.8186 22.1009 56.8493 22.0968 56.8766C22.0918 56.9039 22.0901 56.9271 22.0901 56.9469C22.0901 57.091 22.1382 57.2301 22.2334 57.3658C22.3145 57.4809 22.4312 57.596 22.5843 57.7094H21.158C21.1315 57.7094 21.0992 57.6936 21.0612 57.663C21.0231 57.6324 20.9908 57.6017 20.9651 57.5711C20.9478 57.543 20.9262 57.461 20.9031 57.3244C20.879 57.1878 20.8666 57.0935 20.8666 57.0413V56.5306L20.442 56.8551L20.3989 56.9892C20.3641 57.1349 20.3393 57.24 20.3244 57.3029C20.2954 57.4122 20.2458 57.4966 20.1771 57.5554C20.0463 57.658 19.9006 57.7094 19.7416 57.7094H11.163C11.1373 57.7094 11.1117 57.7003 11.0877 57.6829C11.0769 57.6738 11.0579 57.6547 11.0289 57.6241C10.9685 57.5711 10.9295 57.5057 10.913 57.4262C10.8964 57.3468 10.8882 57.2441 10.8882 57.12V55.187L10.293 55.6291V56.0115C10.2127 56.0248 10.1373 56.0421 10.0678 56.0637C9.88815 56.1208 9.78716 56.1514 9.76315 56.1556C9.73004 56.1556 9.63567 56.1986 9.47921 56.2863C9.29709 56.3865 9.14395 56.4834 9.01812 56.5769C8.85173 56.7019 8.75156 56.8029 8.7168 56.8815L8.0918 58.3592L9.95604 59.716L10.4469 58.5132C10.4469 58.644 10.4701 58.7632 10.5156 58.87C10.5504 58.9511 10.615 59.0554 10.7085 59.1837C10.759 59.2541 10.8219 59.3137 10.8981 59.3642C10.9966 59.4296 11.0935 59.4618 11.1895 59.4618H11.5363V59.4718H20.1928C20.2458 59.4718 20.2971 59.4536 20.3468 59.4163C20.384 59.3882 20.4246 59.346 20.4676 59.2921C20.5264 59.2218 20.567 59.144 20.5893 59.0579C20.6108 58.9718 20.6216 58.8824 20.6216 58.788C20.6241 58.7946 20.6274 58.8012 20.6315 58.8079C20.6555 58.9908 20.6771 59.1075 20.6961 59.158C20.7209 59.2516 20.7582 59.3269 20.8079 59.3832C20.8666 59.4486 20.937 59.4817 21.0173 59.4817H23.8923V57.7251C23.8923 57.538 23.8865 57.3741 23.8741 57.2334C23.8625 57.0926 23.8426 56.9196 23.8153 56.7143Z" fill="#001B49"/>
<path d="M32.4579 54.7317L31.7973 54.0645L31.1433 54.7317L31.7973 55.3832L32.4579 54.7317Z" fill="#001B49"/>
<path d="M26.0828 57.582C26.0828 57.6425 26.053 57.6731 25.9918 57.6731C25.8717 57.6731 25.7211 57.5796 25.5406 57.3916C25.3419 57.1847 25.2426 56.9852 25.2426 56.7931C25.2426 56.7435 25.2509 56.6954 25.2691 56.6499C25.2947 56.5605 25.3353 56.5208 25.3899 56.5315C25.4992 56.5315 25.6325 56.6466 25.7889 56.8751C25.9371 57.0928 26.0298 57.2915 26.0671 57.4703L26.0828 57.539V57.582ZM35.4437 58.1541C35.2997 58.034 35.1664 57.9413 35.0447 57.8759C34.9222 57.8105 34.7749 57.7551 34.6002 57.7095V56.0928L34.9305 55.717L34.7078 54.2186L33.9818 54.9446V57.7095H32.8668C32.8469 57.7095 32.8204 57.6921 32.7881 57.6574C32.784 57.6507 32.7583 57.6201 32.7128 57.5663C32.6971 57.5398 32.6764 57.457 32.6507 57.3171C32.6242 57.1772 32.6118 57.0845 32.6118 57.039V56.5315L32.1962 56.8552L32.1466 56.9902C32.1143 57.1317 32.0894 57.2327 32.0721 57.294C32.0406 57.4007 31.9926 57.4877 31.9247 57.5555C31.8618 57.6118 31.7981 57.6524 31.7335 57.6748C31.6689 57.6979 31.5894 57.7095 31.4959 57.7095H26.6954L26.6813 57.5721C26.6813 57.1855 26.5522 56.7724 26.2923 56.332C26.0265 55.8809 25.7716 55.6549 25.5274 55.6549C25.4297 55.6549 25.3403 55.6988 25.2591 55.7857C25.2202 55.8279 25.188 55.8668 25.1623 55.9057C25.1375 55.9438 25.1135 55.9885 25.0894 56.0415L24.5696 57.2319C24.5166 57.3602 24.4901 57.4943 24.4901 57.6342C24.4901 57.7824 24.5183 57.9305 24.5745 58.0787C24.63 58.2269 24.7111 58.3668 24.8171 58.4976C24.9115 58.6085 25.034 58.6839 25.1838 58.7228C25.2865 58.7493 25.4404 58.7625 25.6449 58.7625L26.1714 57.9835L26.178 57.9935C26.178 58.4099 26.1159 58.7807 25.9918 59.106C25.88 59.3958 25.6896 59.7203 25.4197 60.0804C25.2666 60.2807 25.1135 60.4496 24.9578 60.587C24.8146 60.7137 24.6366 60.8411 24.4255 60.9703L25.8146 61.5688L25.8353 61.5324C25.9611 61.308 26.0298 61.1855 26.0406 61.1665C26.111 61.0398 26.1681 60.9264 26.2144 60.8262C26.2732 60.6996 26.3254 60.568 26.3709 60.4305C26.4082 60.3188 26.4421 60.2037 26.4727 60.0837C26.5034 59.9637 26.5439 59.7716 26.5936 59.5084L26.6035 59.4819H27.1424V59.4719H31.9413C31.9976 59.4719 32.0522 59.4537 32.1043 59.4165C32.1416 59.39 32.1838 59.3486 32.2318 59.2923C32.2815 59.2244 32.3196 59.145 32.3436 59.0531C32.3668 58.962 32.3792 58.8734 32.3792 58.7882C32.3817 58.7948 32.3841 58.8014 32.3891 58.808C32.4131 59.0017 32.4305 59.1185 32.4413 59.1582C32.4735 59.2584 32.5133 59.3337 32.5588 59.3834C32.5828 59.4107 32.6101 59.4297 32.6383 59.4454L32.6375 59.4819H33.9264C34.0439 59.4819 34.1532 59.5026 34.2534 59.544C34.3361 59.5787 34.4264 59.6334 34.5249 59.707C34.6747 59.8188 34.7898 59.9206 34.8684 60.0142C34.9686 60.1367 35.0431 60.2782 35.0936 60.4397L36.0522 58.9057C35.9694 58.7443 35.8808 58.606 35.7873 58.491C35.6937 58.3751 35.5787 58.2625 35.4437 58.1541Z" fill="#001B49"/>
<path d="M36.7263 54.9967V59.4975C36.8604 59.2971 36.9647 59.1117 37.0384 58.9428C37.1113 58.774 37.1808 58.5654 37.2462 58.317C37.2702 58.221 37.2867 58.1059 37.2967 57.9718C37.3066 57.8377 37.3116 57.6986 37.3116 57.5546V56.0563L37.5864 55.6738L37.3637 54.245" fill="#001B49"/>
<path d="M42.4395 54.6829L41.8733 54.1299L41.3137 54.6895L41.8733 55.2483L42.4395 54.6829Z" fill="#001B49"/>
<path d="M41.314 54.6895L40.7553 54.1299L40.199 54.6829L40.7553 55.2483L41.314 54.6895Z" fill="#001B49"/>
<path d="M53.4482 58.461L52.6345 57.6895C52.6229 57.6017 52.6833 57.4693 52.8158 57.2921C52.9474 57.1142 53.0517 57.0256 53.1279 57.0256C53.1759 57.0256 53.2413 57.1647 53.3241 57.4428C53.4069 57.7201 53.4482 57.9693 53.4482 58.1895V58.461ZM49.3862 56.9892C49.3381 57.0744 49.3034 57.1423 49.2819 57.192C49.2537 57.2599 49.2305 57.3327 49.2132 57.4113C49.1999 57.3286 49.18 57.2565 49.1535 57.1953C49.1279 57.1349 49.089 57.0662 49.0368 56.9892C48.9822 56.9113 48.9259 56.8451 48.868 56.793C48.81 56.7408 48.7396 56.6895 48.6569 56.6398C48.738 56.5719 48.8199 56.5223 48.9044 56.4908C48.988 56.4585 49.0824 56.4436 49.1867 56.4436C49.3092 56.4436 49.4093 56.4569 49.4888 56.4842C49.5683 56.5115 49.656 56.5612 49.7496 56.6332C49.5939 56.7226 49.4739 56.841 49.3862 56.9892ZM41.1122 57.2839L41.9325 57.0678L42.2951 56.3683L42.3017 58.0521L41.1122 57.2839ZM53.9425 57.7938C53.8489 57.1092 53.7214 56.6109 53.5625 56.2988C53.4342 56.0488 53.2868 55.9238 53.1213 55.9238C53.0079 55.9238 52.8878 55.9834 52.762 56.1034C52.6527 56.2317 52.5915 56.3029 52.5782 56.3153C52.4284 56.5314 52.2338 56.9196 51.9963 57.4801C51.9309 57.6324 51.7074 57.7085 51.3257 57.7085H49.805C49.8183 57.6266 49.8423 57.5463 49.8779 57.4701C49.9143 57.394 49.9623 57.3195 50.0211 57.2483C50.0948 57.1539 50.1734 57.0827 50.2545 57.0339C50.3365 56.9842 50.4367 56.9469 50.5567 56.9205L50.642 56.283L50.5145 56.221C50.2636 56.0968 50.1213 56.0272 50.0865 56.0115C49.9333 55.942 49.8009 55.8923 49.6875 55.8642C49.5476 55.8294 49.3928 55.812 49.2231 55.812C49.0418 55.812 48.8713 55.836 48.7123 55.884C48.6949 55.8907 48.4375 56.0032 47.9408 56.221L47.7968 56.283L47.8787 56.9205C47.9747 56.9469 48.0534 56.9776 48.1155 57.0123C48.1776 57.0471 48.2496 57.1017 48.3315 57.1763C48.4135 57.2499 48.4789 57.3294 48.5277 57.413C48.5766 57.4966 48.6138 57.596 48.6403 57.7085H43.1295C43.1039 57.7085 43.0782 57.7003 43.0542 57.6829C43.0434 57.6738 43.0244 57.6547 42.9954 57.6241C42.935 57.5711 42.8961 57.5057 42.8795 57.4263C42.863 57.3468 42.8547 57.2441 42.8547 57.12V55.187L42.2595 55.6291V56.0115C42.1792 56.0248 42.1039 56.0421 42.0343 56.0637C41.8555 56.1208 41.7537 56.1514 41.7297 56.1556C41.6974 56.1556 41.6022 56.1986 41.4449 56.2863C41.2645 56.3865 41.1105 56.4834 40.9847 56.5769C40.8183 56.7019 40.7181 56.8029 40.6833 56.8815L40.0583 58.3592L41.9226 59.716L42.4135 58.5132C42.4135 58.644 42.4367 58.7632 42.4822 58.87C42.517 58.9511 42.5815 59.0554 42.6751 59.1837C42.7247 59.2541 42.7885 59.3137 42.8646 59.3642C42.9632 59.4296 43.06 59.4618 43.156 59.4618H43.5021V59.4718H49.0368C49.0641 59.4519 49.0906 59.4279 49.1146 59.3998C49.132 59.3799 49.156 59.3501 49.1867 59.3079C49.2305 59.2276 49.2537 59.182 49.2587 59.1713C49.2785 59.1249 49.2926 59.0769 49.3017 59.0272C49.3017 59.0811 49.3141 59.134 49.3406 59.1837C49.358 59.2185 49.3911 59.264 49.4391 59.3178C49.4888 59.3857 49.5542 59.437 49.6353 59.4718H50.6097V59.4817H51.4044C51.5898 59.4817 51.7314 59.413 51.829 59.2756C51.8986 59.1597 51.9375 59.0968 51.9433 59.086C51.9764 59.0206 51.9971 58.9494 52.0054 58.8733L53.3406 60.2069L53.9689 58.634C53.988 58.5488 53.9979 58.4544 53.9979 58.3493C53.9979 58.2491 53.9913 58.1448 53.978 58.0355C53.9739 57.9966 53.9623 57.9155 53.9425 57.7938Z" fill="#001B49"/>
<path d="M66.9094 57.611C66.6106 57.5348 66.4053 57.4429 66.2943 57.3362C66.1114 57.1623 65.9872 57.0324 65.9218 56.9487C65.8564 56.8651 65.6925 56.6276 65.4309 56.2377C65.3324 56.0911 65.1942 55.9752 65.0154 55.8891C64.8366 55.803 64.6511 55.76 64.4599 55.76C64.2935 55.76 64.1511 55.7956 64.0311 55.8676C63.8962 55.9487 63.801 56.0663 63.7463 56.2211L63.4748 56.9636L63.7463 56.8718C63.8515 56.837 63.9491 56.8105 64.041 56.7931C64.1321 56.7757 64.2231 56.7675 64.3125 56.7675C64.5046 56.7675 64.6909 56.813 64.8713 56.9049C65.0261 56.9835 65.1967 57.106 65.3821 57.2741C65.517 57.3916 65.6751 57.51 65.8564 57.6276C65.9127 57.6648 65.9409 57.6872 65.9409 57.6963C65.9409 57.7054 65.9119 57.7095 65.8531 57.7095H55.9367V57.7087C55.8208 57.7021 55.7289 57.688 55.6619 57.6665C55.5791 57.6383 55.5021 57.5886 55.4309 57.5175C55.3606 57.4463 55.3142 57.3577 55.2919 57.2509C55.2794 57.188 55.2728 57.0804 55.2728 56.9305V54.1499L54.6511 54.928V57.9082C54.6511 58.1027 54.676 58.2832 54.7265 58.4496C54.7761 58.6168 54.8572 58.7807 54.9682 58.9421C55.0683 59.0878 55.1983 59.2128 55.3572 59.3171C55.517 59.4206 55.652 59.4719 55.7629 59.4719H62.9127V59.462H67.0468L67.5634 57.7095C67.3821 57.7095 67.1644 57.6764 66.9094 57.611Z" fill="#001B49"/>
<path d="M64.3127 61.1218L64.9278 61.741L65.5586 61.1218L64.9278 60.5059L64.3127 61.1218Z" fill="#001B49"/>
</svg>
